<svg xmlns="http://www.w3.org/2000/svg" width="146" height="81" viewBox="0 0 146 81" fill="none">
  <path d="M37.382 2.90137H122.985C132.407 2.90137 137.052 14.3564 130.293 20.9187C129.881 21.3184 129.437 21.6837 128.966 22.0108L127.965 22.7048C124.305 25.2448 120.038 26.7731 115.597 27.1352L103.183 28.1475H81.4976C72.9221 28.1475 64.5123 30.5089 57.1903 34.9728C54.8298 36.412 52.6017 38.0579 50.5323 39.8913L45.4154 44.4246C44.7046 45.0543 44.0538 45.7488 43.4716 46.4989C35.1034 57.2802 17.8286 51.3627 17.8286 37.715V22.4547C17.8286 11.6557 26.5829 2.90137 37.382 2.90137Z" stroke="white"/>
  <path d="M113.692 78.5312H28.0888C18.6677 78.5312 14.0219 67.0762 20.7816 60.5139C21.1933 60.1142 21.6372 59.749 22.1086 59.4218L23.1089 58.7278C26.7697 56.1878 31.0362 54.6595 35.4771 54.2974L47.8912 53.2852H69.5767C78.1521 53.2852 86.5619 50.9237 93.8839 46.4598C96.2445 45.0206 98.4725 43.3747 100.542 41.5414L105.659 37.0081C106.37 36.3783 107.02 35.6839 107.603 34.9337C115.971 24.1524 133.246 30.0699 133.246 43.7176V58.9779C133.246 69.7769 124.491 78.5312 113.692 78.5312Z" stroke="white"/>
</svg>