<svg xmlns="http://www.w3.org/2000/svg" width="38" height="38" viewBox="0 0 38 38" fill="none">
  <path
    d="M19 10.672C17.9063 10.6689 16.8228 10.8821 15.8118 11.2993C14.8008 11.7165 13.8823 12.3294 13.109 13.1029C12.3358 13.8764 11.7231 14.7951 11.3063 15.8062C10.8894 16.8174 10.6766 17.9009 10.68 18.9946C10.6769 20.0879 10.89 21.1711 11.3071 22.1818C11.7241 23.1925 12.3369 24.1107 13.1101 24.8837C13.8834 25.6567 14.8018 26.2692 15.8126 26.6859C16.8234 27.1027 17.9066 27.3154 19 27.312C20.0931 27.3151 21.1761 27.1021 22.1866 26.6852C23.1971 26.2683 24.1152 25.6557 24.8882 24.8828C25.6611 24.1098 26.2737 23.1917 26.6906 22.1812C27.1074 21.1707 27.3205 20.0877 27.3174 18.9946C27.3212 17.901 27.1086 16.8175 26.6921 15.8064C26.2755 14.7953 25.663 13.8766 24.89 13.1031C24.117 12.3296 23.1986 11.7165 22.1878 11.2993C21.1769 10.8821 20.0936 10.6689 19 10.672V10.672ZM19 24.322C17.5864 24.322 16.2307 23.7605 15.2311 22.7609C14.2315 21.7613 13.67 20.4056 13.67 18.992C13.67 17.5784 14.2315 16.2227 15.2311 15.2231C16.2307 14.2236 17.5864 13.662 19 13.662C20.4136 13.662 21.7693 14.2236 22.7689 15.2231C23.7684 16.2227 24.33 17.5784 24.33 18.992C24.33 20.4056 23.7684 21.7613 22.7689 22.7609C21.7693 23.7605 20.4136 24.322 19 24.322ZM32 5.9998C31.1888 5.1886 29.7042 5.35501 28.6902 6.36901C27.6762 7.38561 27.5124 8.86241 28.3236 9.67621C29.1348 10.49 30.6168 10.3262 31.6334 9.3096C32.6474 8.2956 32.8112 6.81101 32 5.9998V5.9998ZM6.36919 28.6952C5.35259 29.7092 5.18879 31.1886 5.99999 31.9998C6.81119 32.811 8.29319 32.6498 9.30979 31.6332C10.3264 30.6166 10.4902 29.1346 9.67899 28.3234C8.86779 27.5122 7.38319 27.6786 6.36919 28.6952V28.6952ZM5.99999 5.9998C5.18879 6.81101 5.35259 8.2956 6.36659 9.3096C7.38319 10.3262 8.86519 10.4874 9.67639 9.67621C10.4876 8.86501 10.3238 7.3804 9.30719 6.3664C8.29579 5.355 6.81119 5.1886 5.99999 5.9998ZM28.6902 31.628C29.7042 32.6446 31.1862 32.811 32 31.9998C32.8138 31.1886 32.6474 29.704 31.6308 28.6874C30.6142 27.6708 29.1348 27.5096 28.321 28.3208C27.5072 29.132 27.6762 30.614 28.6902 31.628ZM19 5.99461C20.1466 5.99461 21.08 4.8324 21.08 3.3946C21.0774 1.9568 20.1466 0.799805 19 0.799805C17.8508 0.799805 16.9174 1.9568 16.9174 3.3946C16.9174 4.8324 17.8482 5.99461 19 5.99461ZM19 37.1998C20.1466 37.1998 21.08 36.0376 21.08 34.5998C21.08 33.162 20.1492 32.005 19.0026 32.005C17.8534 32.005 16.92 33.162 16.92 34.5998C16.9174 36.0376 17.8482 37.1998 19 37.1998V37.1998ZM5.99999 18.9998C5.99999 17.8532 4.82999 16.9198 3.39219 16.9198C1.95439 16.9198 0.799988 17.8532 0.799988 18.9998C0.799988 20.149 1.95439 21.0798 3.39219 21.0798C4.82999 21.0798 5.99999 20.149 5.99999 18.9998ZM37.2 18.9998C37.2 17.8532 36.0352 16.9198 34.5974 16.9198C33.1596 16.9198 32 17.8532 32 18.9998C32 20.149 33.1596 21.0798 34.5974 21.0798C36.0352 21.0798 37.2 20.149 37.2 18.9998Z"
    fill="#8E88C1" />
</svg>