<svg xmlns="http://www.w3.org/2000/svg" width="33" height="32" viewBox="0 0 33 32" fill="none">
  <path d="M16.7095 10.875C16.0348 10.8731 15.3663 11.0043 14.7425 11.261C14.1188 11.5178 13.5521 11.895 13.075 12.3709C12.598 12.8469 12.22 13.4123 11.9628 14.0345C11.7056 14.6568 11.5743 15.3236 11.5764 15.9966C11.5745 16.6694 11.706 17.336 11.9633 17.958C12.2206 18.5799 12.5986 19.145 13.0757 19.6207C13.5527 20.0964 14.1194 20.4733 14.743 20.7297C15.3667 20.9862 16.035 21.1171 16.7095 21.115C17.384 21.1169 18.0521 20.9858 18.6755 20.7293C19.299 20.4727 19.8655 20.0958 20.3423 19.6201C20.8192 19.1444 21.1971 18.5794 21.4544 17.9576C21.7116 17.3357 21.843 16.6693 21.8411 15.9966C21.8434 15.3236 21.7123 14.6569 21.4553 14.0346C21.1983 13.4124 20.8204 12.847 20.3435 12.371C19.8666 11.895 19.3 11.5178 18.6763 11.2611C18.0526 11.0043 17.3842 10.8731 16.7095 10.875V10.875ZM16.7095 19.275C15.8374 19.275 15.001 18.9294 14.3843 18.3143C13.7676 17.6992 13.4211 16.8649 13.4211 15.995C13.4211 15.1251 13.7676 14.2908 14.3843 13.6757C15.001 13.0606 15.8374 12.715 16.7095 12.715C17.5817 12.715 18.4181 13.0606 19.0348 13.6757C19.6515 14.2908 19.998 15.1251 19.998 15.995C19.998 16.8649 19.6515 17.6992 19.0348 18.3143C18.4181 18.9294 17.5817 19.275 16.7095 19.275ZM24.7301 7.9998C24.2296 7.5006 23.3137 7.60301 22.6881 8.22701C22.0625 8.85261 21.9614 9.76141 22.4619 10.2622C22.9624 10.763 23.8767 10.6622 24.5039 10.0366C25.1295 9.4126 25.2306 8.49901 24.7301 7.9998V7.9998ZM8.91675 21.9662C8.28955 22.5902 8.18849 23.5006 8.68897 23.9998C9.18945 24.499 10.1038 24.3998 10.731 23.7742C11.3582 23.1486 11.4593 22.2366 10.9588 21.7374C10.4583 21.2382 9.54236 21.3406 8.91675 21.9662V21.9662ZM8.68897 7.9998C8.18849 8.49901 8.28955 9.4126 8.91515 10.0366C9.54236 10.6622 10.4567 10.7614 10.9572 10.2622C11.4577 9.76301 11.3566 8.8494 10.7294 8.2254C10.1054 7.603 9.18945 7.5006 8.68897 7.9998ZM22.6881 23.771C23.3137 24.3966 24.228 24.499 24.7301 23.9998C25.2322 23.5006 25.1295 22.587 24.5023 21.9614C23.8751 21.3358 22.9624 21.2366 22.4603 21.7358C21.9582 22.235 22.0625 23.147 22.6881 23.771ZM16.7095 7.99661C17.4169 7.99661 17.9928 7.2814 17.9928 6.3966C17.9912 5.5118 17.4169 4.7998 16.7095 4.7998C16.0005 4.7998 15.4246 5.5118 15.4246 6.3966C15.4246 7.2814 15.9989 7.99661 16.7095 7.99661ZM16.7095 27.1998C17.4169 27.1998 17.9928 26.4846 17.9928 25.5998C17.9928 24.715 17.4186 24.003 16.7111 24.003C16.0021 24.003 15.4262 24.715 15.4262 25.5998C15.4246 26.4846 15.9989 27.1998 16.7095 27.1998V27.1998ZM8.68897 15.9998C8.68897 15.2942 7.96712 14.7198 7.08004 14.7198C6.19297 14.7198 5.48074 15.2942 5.48074 15.9998C5.48074 16.707 6.19297 17.2798 7.08004 17.2798C7.96712 17.2798 8.68897 16.707 8.68897 15.9998ZM27.9383 15.9998C27.9383 15.2942 27.2197 14.7198 26.3326 14.7198C25.4455 14.7198 24.7301 15.2942 24.7301 15.9998C24.7301 16.707 25.4455 17.2798 26.3326 17.2798C27.2197 17.2798 27.9383 16.707 27.9383 15.9998Z" fill="white"/>
</svg>